<?xml version="1.0" encoding="UTF-8" standalone="no"?>
<!-- Created with Inkscape (http://www.inkscape.org/) -->

<svg
   version="1.1"
   id="svg9"
   xml:space="preserve"
   width="192.02266"
   height="174.67792"
   viewBox="0 0 192.02266 174.67792"
   sodipodi:docname="Infernal_Rust_Skull.svg"
   inkscape:version="1.1.2 (b8e25be833, 2022-02-05)"
   xmlns:inkscape="http://www.inkscape.org/namespaces/inkscape"
   xmlns:sodipodi="http://sodipodi.sourceforge.net/DTD/sodipodi-0.dtd"
   xmlns="http://www.w3.org/2000/svg"
   xmlns:svg="http://www.w3.org/2000/svg"><defs
     id="defs13" /><sodipodi:namedview
     id="namedview11"
     pagecolor="#ffffff"
     bordercolor="#666666"
     borderopacity="1.0"
     inkscape:pageshadow="2"
     inkscape:pageopacity="0.0"
     inkscape:pagecheckerboard="0"
     showgrid="false"
     inkscape:zoom="2.8475"
     inkscape:cx="96.049166"
     inkscape:cy="87.269535"
     inkscape:window-width="2560"
     inkscape:window-height="1361"
     inkscape:window-x="-9"
     inkscape:window-y="-9"
     inkscape:window-maximized="1"
     inkscape:current-layer="g15" /><g
     id="g15"
     inkscape:groupmode="layer"
     inkscape:label="AdobeStock_256620927"
     transform="matrix(1.3333333,0,0,-1.3333333,-103.9884,287.33871)"><g
       id="g788"><g
         id="g117"
         transform="translate(173.0713,214.8379)"><path
           d="m 0,0 c -7.156,2.193 -11.888,-1.731 -11.888,-1.731 8.079,0.461 6.699,-5.425 1.131,-5.462 l -10e-4,-0.001 c -15.673,-0.409 -31.441,-3.485 -47.361,-11.782 -10.4,-5.421 -19.564,-12.661 -27.324,-21.449 l -0.615,-0.696 -0.268,-0.889 c -2.853,-9.472 -3.257,-19.805 -6.737,-28.976 l -1.021,-2.69 2.121,-1.944 c 0.758,-0.695 2.974,-2.797 2.916,-3.995 -0.07,-1.447 -3.592,-6.507 -4.423,-7.906 l -1.61,-2.711 2.133,-2.325 c 3.384,-3.685 4.307,-7.078 3.879,-11.981 l -0.227,-2.606 2.225,-1.374 c 1.623,-1.003 3.487,-2.377 4.161,-4.25 0.704,-1.955 0.555,-3.504 1.779,-5.413 l 5.876,-11.025 2.051,-0.351 c 9.19,-1.571 19.206,-0.704 28.135,1.879 8.899,2.575 17.646,7.131 24.121,13.88 1.272,1.326 2.169,2.602 3.895,4.74 7.556,9.364 14.751,0.129 9.031,-8.147 27.201,10.359 4.414,45.593 34.74,51.648 -10.131,2.161 -18.99,-1.907 -24.643,-6.243 -8.721,-6.689 -16.281,6.174 -0.973,11.904 11.74,4.395 24.555,11.145 18.576,28.849 -2.771,-10.619 -16.505,-9.003 -14.197,-0.578 2.309,8.426 12.061,8.657 24.988,12.581 C 43.396,-15.12 48.937,0 48.937,0 30.932,-14.658 7.156,-2.193 0,0"
           style="fill:#e60040;fill-opacity:1;fill-rule:evenodd;stroke:none"
           id="path119" /></g><g
         id="g121"
         transform="translate(166.2891,143.1055)"><path
           d="M 0,0 C -2.143,2.952 -0.868,8.56 7.885,11.836 19.625,16.231 32.44,22.981 26.461,40.686 26.333,25.749 16.622,30.404 7.262,28.851 0.983,27.81 -0.252,22.199 1.507,19.058 2.029,23.879 11.26,24.235 5.559,17.423 1.493,12.565 -5.935,7.935 0,0"
           style="fill:#a30f39;fill-opacity:1;fill-rule:evenodd;stroke:none"
           id="path123" /></g><g
         id="g125"
         transform="translate(173.0713,214.8379)"><path
           d="M 0,0 C -7.156,2.193 -11.888,-1.731 -11.888,-1.731 -0.322,2.065 3.9,-6.22 17.52,-9.913 c 13.619,-3.693 23.198,1.616 23.198,1.616 -10.529,-16.4 -33.903,-5.624 -40.453,-9.926 -3.867,-2.539 -1.962,-6.752 -0.288,-8.137 -1.229,4.694 5.971,5.491 3.337,0.033 -2.661,-5.517 -0.091,-10.573 3.416,-10.66 -1.28,1.173 -1.895,3 -1.248,5.362 2.309,8.426 12.061,8.657 24.988,12.581 C 43.396,-15.12 48.937,0 48.937,0 30.932,-14.658 7.156,-2.193 0,0"
           style="fill:#a30f39;fill-opacity:1;fill-rule:evenodd;stroke:none"
           id="path127" /></g><g
         id="g129"
         transform="translate(166.4668,142.877)"><path
           d="m 0,0 c -0.018,0.021 -0.035,0.042 -0.052,0.063 l 0.05,-0.064 z"
           style="fill:#a30f39;fill-opacity:1;fill-rule:evenodd;stroke:none"
           id="path131" /></g><g
         id="g133"
         transform="translate(173.9707,132.8477)"><path
           d="m 0,0 c 0.923,2.424 4.443,2.251 4.386,-0.404 -0.058,-2.655 -8.599,-5.309 -10.907,-8.829 -2.308,-3.521 -1.039,-6.695 -1.039,-6.695 1.039,1.905 5.945,2.366 5.829,-6.001 -0.116,-8.368 -7.19,-13.286 -7.19,-13.286 27.201,10.36 4.414,45.593 34.74,51.649 C 18.977,16.536 9.868,13.677 4.386,8.367 -1.097,3.059 0,0 0,0"
           style="fill:#a30f39;fill-opacity:1;fill-rule:evenodd;stroke:none"
           id="path135" /></g><g
         id="g137"
         transform="translate(182.2314,202.2749)"><path
           d="m 0,0 c -36.369,4.341 -68.926,-5.196 -91.422,-30.671 -2.907,-9.649 -3.265,-19.855 -6.833,-29.258 7.548,-6.92 3.735,-9.68 -0.725,-17.195 4.406,-4.799 5.485,-9.429 4.98,-15.22 7.635,-4.716 5.709,-8.711 7.36,-11.1 l 4.992,-9.367 c 20.574,-3.517 49.557,5.87 56.213,27.413 0,0 -3.923,-4.501 -7.617,-3 -2.386,0.969 -3.387,4.021 -2.521,7.297 2.022,7.655 11.351,10.416 18.362,8.687 -2.093,8.019 -8.365,8.848 -12.563,11.164 -2.248,1.241 -2.151,4.655 -0.018,6.264 6.117,4.617 4.329,11.311 4.329,11.311 -2.646,-5.446 -10.527,-4.44 -11.749,0.345 -1.254,4.915 4.172,8.04 8.943,10.643 6.288,3.431 8.859,8.372 6.73,14.058 -0.247,-2.185 -2.997,-4.134 -5.242,-3.85 -3.437,0.434 -3.492,4.513 -1.816,7.093 C -23.466,-7.491 -10.818,-1.906 0,0"
           style="fill:#000000;fill-opacity:1;fill-rule:evenodd;stroke:none"
           id="path139" /></g><g
         id="g141"
         transform="translate(130.4121,147.9883)"><path
           d="m 0,0 c -6.313,-1.363 -5.834,-5.462 -7.162,-9.1 -1.913,-5.244 -9.69,-6.998 -13.906,-6.009 1.63,-1.069 3.793,-1.971 9.166,-3.048 -9.616,-1.579 -19.996,1.01 -21.699,12.47 1.622,-1.147 3.267,-1.889 5.467,-1.712 C -21.643,-6.88 -13.186,3.285 0,0 m 10.017,30.629 c 2.125,10.117 5.476,16.063 17.812,19.85 -28.702,-2.145 -49.008,-16.384 -62.374,-29.036 -1.91,-3.132 -3.525,-20.446 -5.756,-26.324 0,0 5.78,-4.472 3.592,-9.593 -2.187,-5.122 -3.881,-7.973 -3.881,-7.973 6.86,-4.52 17.241,-13.548 4.064,-13.966 6.496,-4.783 5.332,-8.798 6.662,-11.043 l 3.313,-6.217 c 0,0 1.018,-0.261 3.373,-0.181 l -0.759,6.069 3.296,-5.91 c 1.186,0.107 1.623,0.161 3.064,0.488 l -0.741,5.903 3.117,-5.295 c 1.069,0.298 1.318,0.385 2.461,0.852 l -1.167,5.507 3.301,-4.567 c 1.017,0.469 1.047,0.481 2.089,1.114 0,0 -1.906,6.157 1.602,9.403 -8.759,0.981 -16.651,4.886 -18.276,13.996 3.306,-4.532 10.469,-6.852 16.866,-6.056 14.979,1.863 19.055,18.38 32.878,17.864 -12.504,3.632 -15.071,-4.428 -20.249,-3.07 -3.52,0.923 -4.291,6.215 2.068,8.978 1.182,11.039 -4.589,18.884 -12.51,21.776 1.309,-6.803 -6.208,-10.817 -8.594,-4.156 -2.331,6.508 1.582,18.02 8.726,19.507 5.59,1.164 10.087,-5.123 5.585,-9.563 7.877,0.691 9.213,5.815 10.438,11.643"
           style="fill:#d1aa66;fill-opacity:1;fill-rule:evenodd;stroke:none"
           id="path143" /></g><g
         id="g145"
         transform="translate(104.4316,103.9619)"><path
           d="m 0,0 2.044,-3.759 3.296,-5.91 c 1.185,0.107 1.623,0.161 3.063,0.488 C 6.592,-2.03 0,0 0,0"
           style="fill:#fde3a7;fill-opacity:1;fill-rule:evenodd;stroke:none"
           id="path147" /></g><g
         id="g149"
         transform="translate(100.0977,101.6113)"><path
           d="m 0,0 c 0.119,-0.395 0.259,-0.755 0.45,-1.079 l 3.314,-6.217 c 0,0 0.859,-0.221 2.822,-0.194 C 4.886,-2.219 0.007,-0.004 0,0"
           style="fill:#fde3a7;fill-opacity:1;fill-rule:evenodd;stroke:none"
           id="path151" /></g><g
         id="g153"
         transform="translate(110.3755,104.7695)"><path
           d="M 0,0 1.719,-4.085 4.835,-9.38 c 1.069,0.298 1.318,0.385 2.462,0.852 C 4.838,-1.978 0,0 0,0"
           style="fill:#fde3a7;fill-opacity:1;fill-rule:evenodd;stroke:none"
           id="path155" /></g><g
         id="g157"
         transform="translate(90.1108,143.1074)"><path
           d="m 0,0 c 0,0 5.78,-4.472 3.592,-9.593 -2.187,-5.122 -3.881,-7.973 -3.881,-7.973 4.287,-2.825 9.949,-7.41 10.377,-10.554 0.415,-3.045 -4.312,-3.349 -6.313,-3.412 0.371,-0.274 0.716,-0.544 1.038,-0.812 1.525,0.014 5.259,0.419 6.564,2.547 1.834,2.99 -3.026,8.822 -3.809,13.328 -1.155,6.65 4.821,-3.751 15.214,-5.713 7.293,-1.377 15.966,0.005 17.91,8.426 -2.077,-1.097 -8.021,1.038 -6.232,4.674 0.784,1.594 2.574,3.15 4.425,4.923 3.615,3.462 -1.8,10.753 -5.745,-0.06 -1.914,-5.244 -9.691,-6.998 -13.907,-6.01 1.631,-1.068 3.793,-1.97 9.166,-3.047 -9.615,-1.579 -19.996,1.009 -21.698,12.47 1.603,-0.97 4.888,-1.128 7.243,0.053 7.91,3.966 12.84,10.768 26.903,9.628 -2.229,6.764 -5.354,8.638 -6.359,9.081 -0.108,0.042 -0.216,0.083 -0.325,0.123 1.309,-6.803 -6.207,-10.817 -8.594,-4.156 -1.152,3.216 -0.778,7.654 0.756,11.501 l -10e-4,-0.001 c 0,0 0.634,6.699 6.289,9.584 5.656,2.886 9.696,0.693 15.236,7.848 5.539,7.156 8.246,10.582 20.281,12.504 C 39.428,53.215 19.122,38.976 5.756,26.324 3.847,23.192 2.231,5.878 0,0"
           style="fill:#fde3a7;fill-opacity:1;fill-rule:evenodd;stroke:none"
           id="path159" /></g><g
         id="g161"
         transform="translate(118.5103,129.8311)"><path
           d="m 0,0 c -9.616,-1.579 -19.997,1.01 -21.699,12.471 0,0 0.003,-7.437 5.889,-11.65 5.887,-4.212 15.363,-2.215 18.582,-0.633 L -0.172,0.034 Z"
           style="fill:#ffffff;fill-opacity:1;fill-rule:evenodd;stroke:none"
           id="path163" /></g><g
         id="g165"
         transform="translate(95.8667,169.4321)"><path
           d="m 0,0 c -1.909,-3.133 -3.525,-20.447 -5.756,-26.325 6.098,4.425 5.396,15.756 9.394,21.889 2.636,-3.011 9.711,0.058 11.848,2.198 3.424,3.43 4.53,7.877 2.471,9.934 -0.246,0.245 -0.526,0.445 -0.835,0.601 9.199,7.58 23.331,15.242 45.253,20.738 C 33.672,26.89 13.366,12.651 0,0"
           style="fill:#ffffff;fill-opacity:1;fill-rule:evenodd;stroke:none"
           id="path167" /></g><g
         id="g169"
         transform="translate(103.2881,156.1499)"><path
           d="m 0,0 c -0.616,0 -1.116,-0.5 -1.116,-1.116 0,-0.616 0.5,-1.115 1.116,-1.115 0.616,0 1.116,0.499 1.116,1.115 C 1.116,-0.5 0.616,0 0,0"
           style="fill:#ffffff;fill-opacity:1;fill-rule:evenodd;stroke:none"
           id="path171" /></g><g
         id="g173"
         transform="translate(105.3555,162.3184)"><path
           d="m 0,0 c -1.196,0 -2.166,-0.969 -2.166,-2.166 0,-1.195 0.97,-2.165 2.166,-2.165 1.196,0 2.166,0.97 2.166,2.165 C 2.166,-0.969 1.196,0 0,0"
           style="fill:#ffffff;fill-opacity:1;fill-rule:evenodd;stroke:none"
           id="path175" /></g><g
         id="g177"
         transform="translate(108.8667,155.0669)"><path
           d="m 0,0 c -0.67,0 -1.214,-0.544 -1.214,-1.214 0,-0.671 0.544,-1.214 1.214,-1.214 0.67,0 1.214,0.543 1.214,1.214 C 1.214,-0.544 0.67,0 0,0"
           style="fill:#ffffff;fill-opacity:1;fill-rule:evenodd;stroke:none"
           id="path179" /></g><g
         id="g181"
         transform="translate(135.4121,146.04)"><path
           d="m 0,0 c -2.898,-2.007 -7.706,-0.688 -12.699,-1.462 -6.37,-0.989 -14.801,-3.217 -17.765,-6.953 3.709,-2.972 6.712,-3.162 10.227,-0.67 2.774,1.967 6.095,4.294 8.383,5.143 3.578,1.327 11.484,0.404 12.956,2.798 C 2.573,1.252 4.247,10.514 13.855,12.62 2.718,11.613 1.655,1.146 0,0"
           style="fill:#a30f39;fill-opacity:1;fill-rule:evenodd;stroke:none"
           id="path183" /></g><g
         id="g185"
         transform="translate(122.7129,144.5781)"><path
           d="m 0,0 c -6.37,-0.989 -14.801,-3.217 -17.765,-6.953 0.328,-0.264 0.652,-0.504 0.97,-0.724 1.252,-0.76 7.116,-1.079 7.808,0.652 0.692,1.731 -1.241,0.894 -1.241,0.894 0,0 0.202,1.702 2.828,2.193 2.626,0.491 5.467,1.067 7.328,2.193 1.862,1.125 3.42,1.082 5.367,0.995 1.948,-0.087 6.767,-0.145 7.762,1.169 0.913,1.204 1.977,5.642 3.116,7.56 C 14.231,5.042 13.542,2.045 12.699,1.462 9.801,-0.545 4.994,0.774 0,0"
           style="fill:#e60040;fill-opacity:1;fill-rule:evenodd;stroke:none"
           id="path187" /></g><g
         id="g189"
         transform="translate(107.3926,137.8564)"><path
           d="m 0,0 c 1.01,0.347 1.933,1.904 2.77,2.366 0.837,0.461 1.587,0.375 3.405,0.75 1.818,0.375 2.179,0.982 2.179,0.982 0,0 -1.688,-0.332 -1.299,0.13 0.389,0.46 1.068,0.533 2.366,0.62 1.296,0.086 4.402,1.62 4.415,1.626 C 9.21,5.652 3.861,4.221 0.335,2.085 -0.628,1.442 -1.006,-0.346 0,0"
           style="fill:#eaa416;fill-opacity:1;fill-rule:evenodd;stroke:none"
           id="path191" /></g><g
         id="g193"
         transform="translate(159.4297,145.3135)"><path
           d="M 0,0 C 0.951,-2.982 3.467,-4.035 2.726,-0.719 2.405,0.721 1.498,1.985 1.327,3.404 0.923,6.751 3.52,9.406 4.847,11.656 -1.501,7.098 -0.866,2.712 0,0"
           style="fill:#eaa416;fill-opacity:1;fill-rule:evenodd;stroke:none"
           id="path195" /></g><g
         id="g197"
         transform="translate(164.1904,138.0996)"><path
           d="M 0,0 C 0.288,0.809 -1.414,2.078 -2.279,2.338 -2.164,-1.183 -0.289,-0.808 0,0"
           style="fill:#eaa416;fill-opacity:1;fill-rule:evenodd;stroke:none"
           id="path199" /></g><g
         id="g201"
         transform="translate(160.1797,185.5352)"><path
           d="M 0,0 C 1.674,1.731 4.905,7.156 4.905,7.156 1.097,3.578 -4.328,0.75 -3.578,-1.616 -2.136,-2.078 -1.674,-1.731 0,0"
           style="fill:#eaa416;fill-opacity:1;fill-rule:evenodd;stroke:none"
           id="path203" /></g><g
         id="g205"
         transform="translate(163.4688,164.9912)"><path
           d="M 0,0 C 0,0 -2.943,-1.905 -3.059,-0.173 -3.175,1.558 2.308,4.443 3.636,9.233 4.963,14.023 2.539,19.909 2.539,19.909 3.645,15.521 2.412,11.381 0.478,8.394 -1.943,4.655 -11.221,0.694 -8.83,-3.001 -4.386,-6.983 0,0 0,0"
           style="fill:#eaa416;fill-opacity:1;fill-rule:evenodd;stroke:none"
           id="path207" /></g><g
         id="g209"
         transform="translate(159.9492,125.6348)"><path
           d="m 0,0 c -5.021,-0.577 -8.195,-2.886 -7.676,-6.117 2.077,-0.808 1.818,0.346 4.126,2.192 1.743,1.395 6.167,2.41 8.902,3.868 3.107,1.658 4.231,5.446 3.88,8.771 C 9.579,3.751 5.021,0.577 0,0"
           style="fill:#eaa416;fill-opacity:1;fill-rule:evenodd;stroke:none"
           id="path211" /></g><g
         id="g213"
         transform="translate(190.707,201.5493)"><path
           d="m 0,0 c -3.636,0.866 -7.502,0.635 -7.848,-0.98 2.482,0.23 2.482,0.577 7.098,-0.174 4.617,-0.75 7.099,1.27 7.099,1.27 C 6.349,0.116 3.636,-0.865 0,0"
           style="fill:#eaa416;fill-opacity:1;fill-rule:evenodd;stroke:none"
           id="path215" /></g><g
         id="g217"
         transform="translate(161.5068,118.7969)"><path
           d="M 0,0 C -2.539,-4.617 1.212,-6.117 2.366,-4.732 3.521,-3.348 0.347,-2.597 0,0"
           style="fill:#eaa416;fill-opacity:1;fill-rule:evenodd;stroke:none"
           id="path219" /></g><g
         id="g221"
         transform="translate(171.6641,176.793)"><path
           d="m 0,0 c 0,0 0.634,-1.529 2.308,-2.135 1.673,-0.606 5.424,0.231 5.424,0.231 0,0 -1.731,0.057 -3.808,1.673 C 1.846,1.385 0.288,1.212 0,0"
           style="fill:#eaa416;fill-opacity:1;fill-rule:evenodd;stroke:none"
           id="path223" /></g><g
         id="g225"
         transform="translate(176.0498,207.3779)"><path
           d="M 0,0 C -0.52,1.327 -4.098,1.27 -4.905,0.75 -0.635,-2.539 0.52,-1.327 0,0"
           style="fill:#eaa416;fill-opacity:1;fill-rule:evenodd;stroke:none"
           id="path227" /></g><g
         id="g229"
         transform="translate(174.7949,159.3809)"><path
           d="m 0,0 c -1.385,0.086 -1.413,-1.731 -1.413,-1.731 0,0 0.923,-0.116 1.731,0.317 C 1.126,-0.981 0.779,-0.145 0,0"
           style="fill:#000000;fill-opacity:1;fill-rule:evenodd;stroke:none"
           id="path231" /></g><g
         id="g233"
         transform="translate(177.7588,164.0962)"><path
           d="M 0,0 C -0.536,-1.596 -0.373,-3.694 2.215,-2.739 5.735,-1.441 8.102,4.388 8.102,4.388 4.724,2.586 0.891,2.646 0,0"
           style="fill:#000000;fill-opacity:1;fill-rule:evenodd;stroke:none"
           id="path235" /></g><g
         id="g237"
         transform="translate(174.334,120.2266)"><path
           d="M 0,0 C 0.865,-2.251 3.001,1.674 2.077,5.078 -1.039,3.462 -0.866,2.25 0,0"
           style="fill:#000000;fill-opacity:1;fill-rule:evenodd;stroke:none"
           id="path239" /></g><g
         id="g241"
         transform="translate(202.9785,186.4761)"><path
           d="M 0,0 C -8.063,-3.588 -5.062,-9.342 1.983,-6.535 7.008,-3.981 14.229,1.664 16.891,14.069 13.325,7.908 7.508,2.385 0,0"
           style="fill:#a30f39;fill-opacity:1;fill-rule:evenodd;stroke:none"
           id="path243" /></g><g
         id="g245"
         transform="translate(187.4121,131.0049)"><path
           d="M 0,0 C -0.892,-4.978 3.27,-6.169 4.535,-0.421 5.088,4.804 7.918,9.345 11.466,12.499 3.717,9.1 0.996,3.625 0,0"
           style="fill:#a30f39;fill-opacity:1;fill-rule:evenodd;stroke:none"
           id="path247" /></g><g
         id="g249"
         transform="translate(196.2803,160.7012)"><path
           d="M 0,0 C -5.572,-2.388 -4.539,-5.601 0.281,-3.704 3.801,-2.031 9.148,1.514 12.637,8.794 9.501,5.091 5.049,1.671 0,0"
           style="fill:#a30f39;fill-opacity:1;fill-rule:evenodd;stroke:none"
           id="path251" /></g></g></g></svg>
